<?xml version="1.0" encoding="UTF-8"?>
<svg xmlns="http://www.w3.org/2000/svg" viewBox="350 240 620 410">
  <path d="M728.134,350.15l6.366,7.399c4.083,4.745,8.925,8.575,12.153,14.271l-19.726,18.304c-45.307,39.423-88.452,77.263-140.207,111.339,35.105,21.121,74.533,34.427,116.169,31.331,31.646-1.974,60.613-16.732,73.484-46.577,5.042-11.691,4.723-22.656,1.526-34.506-2.56-9.489,3.64-18.469,12.593-20.684,8.486-2.099,18.047,3.428,20.369,13.33,6.733,28.703-2.15,58.599-21.641,81.019-12.707,14.616-28.963,23.828-47.104,30.628-58.54,20.487-131.961-2.63-182.471-36.753-34.43,19.506-69.896,36.203-107.306,48.623-10.193,3.384-19.734,6.072-30.222,6.983-7.669.543-14.781-2.099-18.89-7.513-4.804-6.33-5.103-13.895-1.987-21.213,4.138-9.718,13.071-15.457,23.821-14.093,35.193-1.894,73.52-17.374,105.945-33.96-27.536-23.931-49.462-51.059-64.435-83.188-22.186-47.605-14.583-103.462,27.792-136.476,29.884-23.282,68.695-30.336,105.058-19.609,17.078,5.038,32.286,12.263,47.192,21.829,22.981,14.747,64.399,49.617,81.521,69.516ZM559.532,482.135c22.787-14.078,43.781-28.005,64.048-44.542l82.889-67.63c-28.492-26.661-57.353-54.144-91.719-71.912-15.454-7.36-31.377-13.201-48.727-12.708-42.802,1.218-78.954,30.367-79.911,74.629-.355,16.395,3.824,31.411,10.611,46.263,14.019,29.501,36.994,55.023,62.809,75.9Z" fill="#203059"/>
  <path d="M726.927,390.123l19.726-18.304c-3.228-5.696-8.07-9.526-12.153-14.271l-6.366-7.399,1.53-.59c-.489.189,65.381-57.163,104.652-76.259,41.573-20.216,94.135-27.931,135.113-2.541,30.827,19.101,46.289,54.454,40.524,90.259-9.614,59.71-54.151,115.105-111.851,134.628-25.222,8.534-46.413,7.924-71.691.809l6.267-26.428c10.575,2.981,20.87,4.991,31.735,3.389,16.322-2.406,30.998-7.036,44.91-16.051,26.834-17.388,48.089-41.788,60.679-71.313,12.536-29.399,15.033-66.929-14.351-86.987-11.237-7.67-24.822-11.964-38.568-13.268-47.395-4.498-91.246,21.969-127.056,50.023l-19.693,15.428-11.284,9.682c-4.109,3.526-8.444,6.336-11.704,11.028l33.115,36.948-17.622,16.743-35.913-35.526Z" fill="#ee7518"/>
</svg>
