<?xml version="1.0" encoding="UTF-8"?>
<svg id="Calque_1" xmlns="http://www.w3.org/2000/svg" version="1.1" viewBox="0 0 1402 1122">
  <!-- Generator: Adobe Illustrator 30.1.0, SVG Export Plug-In . SVG Version: 2.1.1 Build 136)  -->
  <g>
    <path d="M793.113,663.071c7.429-12.239,29.767-39.575,45.687-29.358,3.364,2.159,4.544,6.199,6.154,10.909,9.744-19.185,27.292-32.37,47.912-35.609,6.355-.998,12.356,1.125,16.268,5.29,3.931,4.185,5.785,10.284,4.11,16.049-1.047,3.603-3.691,5.2-5.827,6.537-3.566,2.231-6.074-.83-9.411-.888-12.719-.223-31.219,12.929-31.456,23.156-.144,6.241,5.185,10.532,10.176,13.274l13.585,7.463c4.043,2.221,7.436,5.049,11.416,7.593,9.727,6.22,13.828,18.146,9.86,29.607-5.976,17.257-19.477,30.338-35.614,38.729-8.688,4.518-22.143,9.589-31.548,5.472-14.117-6.18-15.494-24.981-9.266-28.608,6.66-3.879,7.005,3.068,16.25.659,11.911-3.104,23.623-7.763,32.255-16.595,3.165-3.239,5.924-8.277,4.053-12.616-7.144-16.567-50.143-15.711-45.561-48.667-13.232,12.04-12.822-4.76-31.79,14.921-9.737,10.103-17.563,21.725-23.272,34.649-5.567,12.602-11.583,45.573-13.085,59.92-.565,5.394-1.214,10.058-5.747,12.739-4.675,2.765-9.864,2.368-14.682-.356-12.633-7.141-4.076-14.562-8.91-19.839-2.214,5.321-5.9,8.61-9.41,12.861-5.962,7.219-12.275,14.871-21.247,18.439-9.334,3.712-18.523-2.32-23.266-10.582-4.597-8.007-4.541-16.643-4.716-26.585-9.951,16.758-24.713,42.224-41.535,51.619-8.894,4.967-19.381,3.063-25.884-5.006-5.177-6.423-6.196-14.332-6.932-23.688l-18.939,22.234c-7.277,8.543-15.177,15.952-24.277,22.445-8.27,4.962-16.657,9.399-26.325,10.349-20.588,2.024-36.443-12.214-40.582-32.898-10.698,16.861-19.366,29.216-37.273,39.145-15.254,8.458-34.44,3.253-40.462-12.768l-4.185-11.134c-4.74,4.414-7.986,9.546-12.11,14.686-13.268,16.537-27.855,31.518-45.666,43.098-23.344,15.177-52.988,16.843-69.368-8.195s-13.959-65.862-8.353-94.623c9.605-49.278,30.943-100.269,61.922-139.802,6.927-8.84,14.592-16.877,23.488-23.129,8.207-5.768,17.059-7.765,26.539-7.493,9.705.278,17.704,2.618,24.125,10.526,7.744,9.537,8.803,22.114,6.147,34.28-3.283,15.038-8.888,28.655-18.068,41.077-5.244,7.096-22.952,19.468-29.183,9.139-1.575-2.611-.66-5.233.63-7.916,7.875-16.384,18.361-40.246,16.189-58.502-.273-2.297-2.522-4.231-4.899-3.39-6.794,2.402-10.819,7.83-15.074,13.182-24.905,31.324-43.539,81.018-51.829,120.04-.655,3.084-1.301,6.149-1.684,9.06l-2.113,16.078c-1.815,13.805-1.18,33.894,1.451,48.019,1.115,5.986,6.921,22.102,13.497,21.777,6.001-.296,11.257-3.069,16.414-6.288,26.957-16.828,50.291-45.717,70.137-70.87,5.571-27.429,17.764-52.664,37.04-72.482,9.049-9.304,19.298-11.525,31.537-9.752,18.113,2.624,21.619,9.462,28.103,27.739,6.757-13.266,15.849-24.693,28.211-33.41,14.531-10.247,35.19-9.229,46.516,4.574,7.115,8.672,7.63,19.542,4.682,29.715-3.649,12.593-11.338,22.338-20.334,31.516-12.123,12.369-27.529,19.263-45.949,14.833-1.599,9.6-1.816,19.416,1.481,28.068,2.976,7.809,9.596,10.363,17.06,7.931,24.397-7.949,51.112-41.829,66.355-61.992,4.165-22.283,9.505-43.302,18.139-63.911,2.692-6.426,10.905-7.322,16.964-6.226,5.24.947,11.503,5.489,9.722,11.433-6.523,21.774-13.444,42.8-17.714,65.074-.862,4.498-4.413,29.484.172,29.871,5.083-2.059,8.542-6.692,11.624-11.158,13.874-20.103,25.914-40.697,34.374-63.685,4.375-11.887,8.566-23.052,12.095-35.03,2.87-9.739,11.599-11.974,20.266-9.88,5.492,1.327,10.132,5.516,8.411,11.7l-5.646,20.28c-3.604,12.945-6.568,25.744-9.241,39.044-1.521,7.572-2.207,14.438-1.921,22.135.17,4.564-1.918,9.357,2.247,13.333,9.043-5.908,36.164-41.707,38.291-48.931,7.226-24.553,11.865-49.133,20.937-73.102,3.867-10.216,6.586-16.665,17.703-17.444,5.545-.388,9.68,4.364,8.306,9.531l-8.142,30.608ZM546.848,747.999c22.385-11.651,33.668-40.017,25.685-47.394-2.311-2.136-6.958.449-9.094,1.975-9.429,6.739-15.688,15.92-20.483,26.396-2.727,5.957-7.169,12.171-6.638,19.036,1.155,2.882,7.378,1.627,10.529-.013ZM463.433,810.742c8.558-7.22,13.539-16.431,18.229-26.115,8.866-18.31,19.903-48.554,10.552-67.701-1.672-3.424-6.144-8.011-9.883-5.609-17.025,10.939-28.87,45.851-31.724,65.027-1.258,8.451-3.08,31.928,4.787,37.2,2.295,1.538,5.927-1.02,8.039-2.802Z" fill="#ee7518"/>
    <path d="M728.134,350.15l6.366,7.399c4.083,4.745,8.925,8.575,12.153,14.271l-19.726,18.304c-45.307,39.423-88.452,77.263-140.207,111.339,35.105,21.121,74.533,34.427,116.169,31.331,31.646-1.974,60.613-16.732,73.484-46.577,5.042-11.691,4.723-22.656,1.526-34.506-2.56-9.489,3.64-18.469,12.593-20.684,8.486-2.099,18.047,3.428,20.369,13.33,6.733,28.703-2.15,58.599-21.641,81.019-12.707,14.616-28.963,23.828-47.104,30.628-58.54,20.487-131.961-2.63-182.471-36.753-34.43,19.506-69.896,36.203-107.306,48.623-10.193,3.384-19.734,6.072-30.222,6.983-7.669.543-14.781-2.099-18.89-7.513-4.804-6.33-5.103-13.895-1.987-21.213,4.138-9.718,13.071-15.457,23.821-14.093,35.193-1.894,73.52-17.374,105.945-33.96-27.536-23.931-49.462-51.059-64.435-83.188-22.186-47.605-14.583-103.462,27.792-136.476,29.884-23.282,68.695-30.336,105.058-19.609,17.078,5.038,32.286,12.263,47.192,21.829,22.981,14.747,64.399,49.617,81.521,69.516ZM559.532,482.135c22.787-14.078,43.781-28.005,64.048-44.542l82.889-67.63c-28.492-26.661-57.353-54.144-91.719-71.912-15.454-7.36-31.377-13.201-48.727-12.708-42.802,1.218-78.954,30.367-79.911,74.629-.355,16.395,3.824,31.411,10.611,46.263,14.019,29.501,36.994,55.023,62.809,75.9Z" fill="#203059"/>
    <path d="M956.1,842.913c-7.668,5.964-14.294,11.8-24.068,14.427-1.317,28.197-16.685,68.546-39.773,85.632-9.756,7.22-22.377,6.244-29.757-3.36-4.246-5.525-5.884-12.013-7.321-19.407-8.763,11.626-20.345,36.314-35.458,34.384-13.447-1.717-16.837-20.322-16.92-33.004l-17.178,25.131c-4.59,6.715-9.663,12.659-16.08,17.624-7.833,6.061-18.212,4.615-24.32-4.034-5.242-7.421-3.975-17.273-4.618-27.76-10.375,14.131-20.564,27.842-34.148,38.726-7.509,6.017-16.854,9.667-25.98,5.959-9.882-4.015-14.888-13.496-17.018-23.65-6.512,9.106-15.772,28.902-26.096,28.807-16.548-.152-20.176-23.254-19.42-38.017l-12.751,24.004c-4.178,7.865-8.871,15.254-15.245,21.441-5.975,5.8-14.162,6.473-21.412,2.184-14.331-8.479-11.775-32.969-8.408-47.191,6.301-26.615,22.101-65.35,45.353-80.895,8.736-5.841,18.818-4.126,26.265,2.277,2.986-4.346,7.454-6.207,12.485-4.148,5.37,2.198,8.342,6.484,6.824,12.405-4.865,18.967-14.766,65.357-10.452,83.927,5.956-3.8,21.173-28.312,22.401-32.954,5.405-20.427,10.161-40.411,22.558-57.967,8.035-11.379,18.796-25.396,34.501-20.029,4.79,1.637,10.131,6.104,11.476,12.745,2.447,12.086-4.783,31.299-13.004,26.718-5.263-2.932,1.098-15.688-4.433-21.769-5.169,2.814-8.377,7.357-11.086,12.224-9.172,16.481-14.695,34.549-16.629,53.4-.691,6.733-.579,20.863,5.869,23.631,11.533,4.951,50.166-45.234,52.427-55.268l10.131-44.959c-7.244-.874-17.491,4.52-20.838-5.474-.949-2.832,0-8.692,3.742-9.62l21.819-5.409,9.508-34.794c.723-2.647,2.264-4.723,3.829-5.524,2.622-1.343,5.718-.945,8.322-.322,16.842,4.031,3.914,20.955,2.601,35.258,10.033.84,24.48-8.838,28.167-.165,1.364,3.208.285,10.491-3.903,11.694l-29.275,8.41c-6.362,27.046-12.663,53.921-15.169,81.678-.469,5.19-1.214,9.769,1.673,14.767,8.439-4.316,39.574-49.281,41.005-54.229l14.228-49.189c1.175-4.064,4.531-6.695,7.672-7.594,4.388-1.256,8.793-.614,11.834,2.248,3.124,2.939,2.394,6.958,1.289,10.72-4.985,16.979-9.143,33.674-12.963,50.939-.684,3.092-5.782,33.428-1.118,33.999,7.162-5.337,27.878-36.002,30.019-42.13,5.709-16.341,8.926-33.018,18.73-47.566,4.883-7.245,8.954-14.538,16.359-19.425,4.307-2.842,9.788-5.604,14.974-3.276,8.909,3.998,15.946,1.002,22.946,19.879,9.867,1.029,24.211-16.769,30.737-22.807,3.638-3.365,9.474-1.742,12.754.51,11.273,7.738,2.812,20.186,3.412,31.636,7.485-11.912,21.82-39.956,35.267-44.547,9.182-3.135,18.316,4.202,20.143,13.342,1.293,6.467.633,12.716-.505,19.185l-7.741,44.02c-.417,2.372-2.242,17.065,1.149,17.72,5.355,1.035,24.417-24.879,28.43-30.137,1.643-2.153,4.761-1.695,6.257-.434,1.516,1.278,3.392,4.728,2.172,7.356-6.457,13.91-21.972,38.106-35.395,45.74-8.646,4.917-18.406.783-22.204-8.245-3.376-8.024-3.983-16.626-2.379-25.445l7.958-43.748c.885-4.866,2.11-9.368.518-14.964-5.563,4.079-9.045,9.385-12.709,15.234-15.97,25.49-27.984,53.122-35.563,82.26-.921,3.543-2.71,6.088-5.133,7.128-3.435,1.475-6.465.428-9.372-.926-6.06-2.822-8.481-7.728-7.169-14.079l8.559-41.405c2.272-10.993,4.672-21.122,6.646-33.502ZM913.099,853.976c-.309-6.413-4.206-12.534-7.613-17.768-7.931,5.379-10.961,13-14.382,20.837-7.35,16.836-12.698,34.313-13.19,52.885-1.206,45.514,37.009-18.109,35.184-55.954ZM620.725,897.712c2.075-5.414,4.679-17.613-1.45-19.479-5.559-1.693-15.136,14.456-17.778,19.447-9.993,18.878-17.047,39.08-20.223,60.311-.613,4.099-1.193,8.818,1.54,12.05,14.986-15.47,30.41-52.76,37.912-72.329Z" fill="#203059"/>
    <path d="M726.927,390.123l19.726-18.304c-3.228-5.696-8.07-9.526-12.153-14.271l-6.366-7.399,1.53-.59c-.489.189,65.381-57.163,104.652-76.259,41.573-20.216,94.135-27.931,135.113-2.541,30.827,19.101,46.289,54.454,40.524,90.259-9.614,59.71-54.151,115.105-111.851,134.628-25.222,8.534-46.413,7.924-71.691.809l6.267-26.428c10.575,2.981,20.87,4.991,31.735,3.389,16.322-2.406,30.998-7.036,44.91-16.051,26.834-17.388,48.089-41.788,60.679-71.313,12.536-29.399,15.033-66.929-14.351-86.987-11.237-7.67-24.822-11.964-38.568-13.268-47.395-4.498-91.246,21.969-127.056,50.023l-19.693,15.428-11.284,9.682c-4.109,3.526-8.444,6.336-11.704,11.028l33.115,36.948-17.622,16.743-35.913-35.526Z" fill="#ee7518"/>
    <path d="M424.443,972.632c-11.67,15.32-29.729,42.576-50.675,37.255-8.304-2.11-14.292-8.992-17.318-17.087-12.029-32.185,15.309-90.769,40.626-95.107,11.432-1.959,22.079,5.631,22.407,18.09.359,13.636-8.085,26.322-16.973,36.613-6.129,7.096-15.455,13.738-25.801,12.294-1.916,5.349-1.169,21.656,4.364,23.938,13.6,5.608,42.31-37.652,49.649-48.062l7.403-40.596c1.005-5.512,4.962-9.084,10.971-7.7,4.062.936,10.197,4.002,9.652,8.726l-2.462,21.345c6.233-10.226,23.67-42.143,37.606-39.962,10.508,1.645,15.355,11.839,13.791,21.773l-7.993,50.758c.177-1.123-.487,12.07.94,12.986,3.624,2.327,16.828-14.821,19.409-18.047,2.558-3.197,5.029-8.294,9.225-9.216,4.031-.885,5.963,5.047,4.471,8.464-4.19,9.596-10.563,17.616-16.621,26.11-4.786,6.71-15.142,16.688-23.706,14.739-13.467-3.065-15.75-20.678-13.836-31.944l6.775-39.894c.702-4.133,2.237-7.798.418-12.421-3.493,2.633-6.148,5.789-8.777,9.599-16.594,24.048-27.772,51.224-35.294,79.542-.811,3.054-2.13,5.156-4.272,6.04-5.187,2.141-15.663-2.484-15.83-8.951l1.852-19.287ZM401.595,913.861c-2.249-1.376-5.256,2.305-6.699,3.998-7.811,9.164-12.178,20.249-15.673,32.156,10.552.005,29.883-31.561,22.372-36.154Z" fill="#203059"/>
    <path d="M937.377,232.602c-17.927,10.297-40.315,4.401-49.42-13.398-2.716-5.309-4.591-10.311-5.003-16.155-1.595-22.653,7.638-44.734,25.837-58.022,9.777-7.139,21.523-10.653,33.006-6.646,13.046,4.552,20.749,16.354,23.488,29.588.839,7.843,1.087,15.628.006,23.337-3.837,17.026-12.35,32.355-27.914,41.295Z" fill="#ee7518"/>
    <path d="M637.463,205.429c-9.978,23.185-33.52,39.346-56.829,28.858-8.948-4.026-16.854-12.72-19.846-23.947-7.111-26.687,8.568-58.352,32.37-69.871,16.609-8.038,34.814-1.923,43.335,14.283,8.29,15.766,8.057,34.211.97,50.677Z" fill="#203059"/>
    <path d="M1101.85,892.742c-1.438,4.494-6.249,5.43-10.121,4.708-3.043-.567-7.809-3.08-7.462-7.468.802-10.152,3.094-19.411,5.394-29.438l26.853-117.076c1.278-5.573,5.87-8.591,11.488-7.936,6.504.758,12.507,3.353,18.316,6.355,3.527,1.823,5.467,5.723,4.004,9.929l-42.225,121.402-6.248,19.524Z" fill="#203059"/>
    <path d="M1097.739,925.723c8.084,9.954,5.552,23.691-3.049,31.941-5.014,4.809-11.35,7.372-18.269,5.375-5.831-1.683-11.413-6.896-12.197-13.921-1.02-9.144,2.63-16.903,8.844-23.223,4.597-4.675,11.938-7.168,18.466-4.969,1.632.644,4.756,3.014,6.205,4.798Z" fill="#ee7518"/>
    <path d="M843.103,815.464c-5.026,4.032-11.443-1.085-13.515-6.069-3.452-8.301-.002-18.176,7.445-23.012,3.558-2.31,7.256-2.337,10.827-.586,12.637,6.197.954,25.086-4.756,29.667Z" fill="#203059"/>
  </g>
  <g>
    <path d="M499.533,632.59c0,6.819-5.341,10.797-15.569,10.797h-19.775v-39.776h18.638c9.546,0,14.661,4.034,14.661,10.342,0,4.091-2.045,7.103-5.114,8.751,4.262,1.363,7.16,4.716,7.16,9.887ZM471.576,609.406v10.967h10.456c5.114,0,8.012-1.818,8.012-5.455,0-3.693-2.898-5.512-8.012-5.512h-10.456ZM492.089,631.851c0-3.978-3.011-5.739-8.58-5.739h-11.933v11.479h11.933c5.569,0,8.58-1.762,8.58-5.739Z" fill="#203059"/>
    <path d="M516.517,603.61h7.387v39.776h-7.387v-39.776Z" fill="#203059"/>
    <path d="M579.076,603.61v39.776h-6.08l-21.934-26.935v26.935h-7.331v-39.776h6.08l21.934,26.935v-26.935h7.33Z" fill="#203059"/>
    <path d="M598.844,603.61h17.388c12.899,0,21.707,7.955,21.707,19.888s-8.808,19.889-21.707,19.889h-17.388v-39.776ZM615.892,637.136c8.864,0,14.604-5.397,14.604-13.638s-5.739-13.638-14.604-13.638h-9.66v27.275h9.66Z" fill="#203059"/>
    <path d="M670.323,629.351v14.035h-7.387v-13.922l-15.626-25.854h7.898l11.649,19.377,11.762-19.377h7.273l-15.569,25.741Z" fill="#203059"/>
  </g>
</svg>