<?xml version="1.0" encoding="UTF-8"?>
<svg id="Calque_2" xmlns="http://www.w3.org/2000/svg" version="1.1" viewBox="0 0 1622.406 404.266">
  <!-- Generator: Adobe Illustrator 30.1.0, SVG Export Plug-In . SVG Version: 2.1.1 Build 136)  -->
  <path d="M934.063,204.393c6.437-8.73,25.136-27.83,36.413-19.01,2.383,1.864,2.992,4.997,3.879,8.667,8.658-13.816,22.776-22.56,38.519-23.578,4.852-.314,9.222,1.706,11.879,5.123,2.67,3.433,3.644,8.169,1.985,12.407-1.037,2.649-3.137,3.672-4.837,4.534-2.838,1.438-4.514-1.048-7.022-1.323-9.558-1.05-24.39,7.603-25.274,15.312-.54,4.704,3.175,8.314,6.743,10.731l9.71,6.579c2.89,1.958,5.248,4.329,8.068,6.526,6.892,5.372,9.155,14.665,5.377,23.047-5.689,12.621-16.754,21.566-29.479,26.787-6.851,2.81-17.328,5.709-24.122,1.948-10.199-5.646-9.937-19.942-4.999-22.251,5.281-2.469,5.061,2.802,12.185,1.623,9.179-1.519,18.316-4.227,25.422-10.3,2.606-2.227,5.03-5.841,3.921-9.248-4.233-13.009-36.656-15.341-30.932-39.917-10.79,8.178-9.322-4.484-24.957,9.068-8.026,6.957-14.719,15.193-19.908,24.56-5.06,9.133-11.864,33.621-13.985,44.354-.797,4.035-1.608,7.513-5.205,9.224-3.71,1.765-7.587,1.105-11.026-1.286-9.015-6.269-2.062-11.282-5.337-15.603-2.034,3.866-5.035,6.095-7.97,9.062-4.986,5.04-10.265,10.382-17.264,12.456-7.281,2.157-13.781-3.036-16.781-9.605-2.907-6.367-2.269-12.886-1.714-20.407-8.647,11.969-21.515,30.182-34.825,36.112-7.037,3.136-14.799.971-19.136-5.574-3.453-5.21-3.674-11.255-3.582-18.373l-15.79,15.482c-6.067,5.948-12.524,10.998-19.822,15.271-6.567,3.175-13.186,5.946-20.528,5.994-15.635.102-26.586-11.751-28.273-27.661-9.216,11.995-16.593,20.726-30.756,26.985-12.065,5.332-26.146.071-29.572-12.447l-2.381-8.7c-3.872,3.006-6.67,6.657-10.129,10.254-11.128,11.572-23.141,21.877-37.346,29.39-18.618,9.846-41.044,9.051-51.645-10.996-10.601-20.048-5.959-50.715.245-72.052,10.631-36.557,30.211-73.593,56.257-101.308,5.824-6.197,12.148-11.737,19.275-15.843,6.575-3.788,13.376-4.684,20.492-3.821,7.285.883,13.144,3.204,17.431,9.622,5.17,7.74,5.099,17.314,2.26,26.319-3.509,11.131-8.668,21.029-16.435,29.776-4.437,4.997-18.619,13.115-22.596,4.881-1.005-2.081-.135-3.998,1.02-5.936,7.058-11.83,16.598-29.128,16.223-43.067-.047-1.754-1.606-3.37-3.453-2.9-5.279,1.344-8.683,5.165-12.255,8.913-20.907,21.935-38.363,58.18-47.296,87.08-.706,2.284-1.404,4.554-1.893,6.727l-2.701,11.998c-2.319,10.302-3.228,25.52-2.223,36.371.426,4.599,3.684,17.174,8.655,17.384,4.537.192,8.684-1.538,12.788-3.612,21.451-10.843,41.008-31.048,57.681-48.672,6.087-20.332,17.006-38.548,32.882-52.182,7.453-6.4,15.32-7.369,24.41-5.181,13.452,3.237,15.618,8.645,19.237,22.9,6.001-9.552,13.634-17.554,23.539-23.282,11.644-6.733,27.123-4.533,34.694,6.678,4.756,7.043,4.394,15.289,1.473,22.77-3.616,9.259-10.076,16.087-17.48,22.397-9.978,8.503-22.05,12.643-35.608,8.021-1.866,7.14-2.707,14.54-.823,21.303,1.701,6.105,6.507,8.492,12.293,7.173,18.912-4.314,41.357-28.054,54.222-42.228,4.673-16.542,10.143-32.049,18.064-47.018,2.47-4.668,8.713-4.775,13.198-3.527,3.878,1.079,8.279,4.943,6.528,9.31-6.413,15.995-13.074,31.397-17.825,47.926-.959,3.338-5.357,21.964-1.933,22.575,3.968-1.203,6.891-4.463,9.519-7.623,11.83-14.223,22.314-28.945,30.268-45.723,4.113-8.676,8.038-16.819,11.522-25.621,2.832-7.157,9.557-8.241,15.935-6.059,4.042,1.383,7.245,4.869,5.523,9.42l-5.65,14.927c-3.606,9.528-6.721,18.99-9.65,28.851-1.668,5.614-2.658,10.753-2.974,16.586-.187,3.46-2.09,6.935.771,10.227,7.214-3.836,30.099-28.998,32.197-34.307,7.134-18.045,12.322-36.29,20.805-53.766,3.616-7.449,6.107-12.132,14.528-11.95,4.201.091,6.984,3.967,5.593,7.774l-8.241,22.556.004-.004ZM742.848,251.481c17.653-7.25,28.103-27.894,22.604-34.019-1.592-1.774-5.268-.143-6.981.862-7.562,4.437-12.907,10.938-17.239,18.519-2.463,4.311-6.236,8.697-6.31,13.919.67,2.257,5.441,1.74,7.925.719h.001ZM675.734,293.095c6.94-4.86,11.325-11.473,15.523-18.463,7.937-13.216,18.332-35.296,12.616-50.406-1.022-2.702-4.071-6.477-7.051-4.921-13.569,7.083-24.894,32.633-28.366,46.919-1.53,6.296-4.522,23.903,1.035,28.431,1.621,1.321,4.531-.36,6.244-1.559h0Z" fill="#1d1d1b"/>
  <path d="M300.406,209.115l4.474,5.2c2.869,3.335,6.272,6.026,8.541,10.029l-13.863,12.863c-31.84,27.706-62.162,54.299-98.534,78.246,24.671,14.843,52.38,24.195,81.641,22.018,22.24-1.387,42.597-11.759,51.643-32.734,3.543-8.216,3.319-15.922,1.072-24.25-1.799-6.669,2.558-12.98,8.85-14.536,5.964-1.475,12.683,2.409,14.315,9.368,4.732,20.172-1.511,41.182-15.209,56.938-8.93,10.272-20.355,16.746-33.103,21.525-41.141,14.398-92.739-1.848-128.236-25.829-24.197,13.708-49.121,25.442-75.412,34.171-7.164,2.378-13.869,4.267-21.239,4.907-5.39.382-10.388-1.475-13.276-5.28-3.376-4.448-3.587-9.765-1.397-14.908,2.908-6.83,9.186-10.863,16.741-9.904,24.733-1.331,51.668-12.21,74.456-23.867-19.352-16.818-34.761-35.883-45.284-58.462-15.592-33.455-10.249-72.711,19.531-95.912,21.001-16.362,48.277-21.319,73.832-13.78,12.002,3.541,22.69,8.618,33.166,15.341,16.15,10.364,45.258,34.87,57.291,48.854v.002ZM181.917,301.872c16.014-9.893,30.768-19.682,45.012-31.303l58.252-47.529c-20.024-18.737-40.306-38.051-64.458-50.538-10.861-5.173-22.051-9.278-34.244-8.931-30.08.856-55.487,21.341-56.16,52.447-.249,11.522,2.688,22.075,7.457,32.512,9.852,20.733,25.998,38.669,44.14,53.341h0Z" fill="#1d1d1b"/>
  <path d="M1425.149,227.365c-5.349,3.641-10.002,7.243-16.601,8.564-2.109,18.752-14.074,44.992-30.142,55.373-6.79,4.387-15.121,3.18-19.597-3.552-2.575-3.873-3.378-8.273-4.007-13.269-6.324,7.37-15.09,23.329-25.033,21.376-8.847-1.737-10.282-14.298-9.781-22.762l-12.499,16.008c-3.34,4.277-6.966,8.019-11.441,11.048-5.463,3.698-12.286,2.277-15.961-3.762-3.153-5.181-1.881-11.698-1.848-18.722-7.503,8.97-14.864,17.668-24.354,24.33-5.246,3.683-11.606,5.707-17.499,2.831-6.381-3.114-9.287-9.659-10.256-16.526-4.72,5.788-11.731,18.586-18.577,18.068-10.973-.83-12.369-16.401-11.22-26.217l-9.512,15.452c-3.117,5.063-6.554,9.785-11.055,13.632-4.219,3.606-9.681,3.694-14.303.514-9.138-6.287-6.369-22.512-3.511-31.852,5.347-17.477,17.527-42.622,33.636-51.968,6.053-3.512,12.667-1.924,17.328,2.676,2.172-2.768,5.218-3.813,8.466-2.217,3.467,1.703,5.251,4.693,3.984,8.576-4.059,12.439-12.661,42.949-10.612,55.527,4.118-2.273,15.289-17.955,16.307-20.997,4.481-13.389,8.512-26.511,17.507-37.677,5.83-7.237,13.584-16.114,23.769-11.842,3.106,1.303,6.455,4.518,7.056,9.008,1.094,8.171-4.545,20.669-9.799,17.251-3.364-2.188,1.416-10.417-1.988-14.717-3.553,1.65-5.881,4.539-7.891,7.667-6.808,10.59-11.264,22.4-13.373,34.891-.753,4.461-1.298,13.892,2.859,16.023,7.436,3.811,35.268-27.966,37.208-34.56l8.692-29.546c-4.769-.902-11.804,2.245-13.587-4.57-.505-1.931.38-5.798,2.904-6.252l14.714-2.647,7.833-22.792c.596-1.734,1.709-3.051,2.782-3.516,1.799-.78,3.836-.379,5.536.152,10.999,3.431,1.679,14.151.181,23.635,6.62,1.002,16.63-4.818,18.697,1.13.765,2.2-.27,7.011-3.102,7.629l-19.793,4.321c-5.406,17.762-10.764,35.413-13.643,53.819-.538,3.442-1.234,6.463.463,9.925,5.789-2.508,28.417-31.132,29.584-34.37l11.595-32.187c.958-2.659,3.3-4.267,5.424-4.728,2.967-.645,5.861-.022,7.754,2.021,1.944,2.098,1.284,4.747.386,7.208-4.052,11.107-7.542,22.061-10.833,33.41-.589,2.033-5.301,22.045-2.231,22.631,4.986-3.245,20.075-22.789,21.764-26.783,4.504-10.65,7.369-21.633,14.512-30.906,3.557-4.618,6.578-9.304,11.706-12.238,2.982-1.707,6.74-3.307,10.079-1.526,5.736,3.06,10.537,1.371,14.354,14.272,6.502,1.121,16.799-10.12,21.394-13.861,2.561-2.085,6.363-.745,8.441.902,7.141,5.659.981,13.59.878,21.254,5.488-7.617,16.229-25.694,25.352-28.164,6.23-1.687,11.969,3.61,12.781,9.788.574,4.371-.137,8.51-1.176,12.776l-7.065,29.025c-.381,1.564-2.235,11.285-.014,11.872,3.508.926,17.291-15.521,20.184-18.852,1.185-1.364,3.233-.921,4.171-.014.95.919,2.044,3.303,1.119,5.003-4.894,8.995-16.248,24.453-25.489,28.954-5.953,2.9-12.247-.289-14.372-6.478-1.888-5.502-1.915-11.266-.464-17.079l7.197-28.834c.801-3.207,1.81-6.157.999-9.959-3.87,2.476-6.412,5.863-9.1,9.603-11.713,16.301-20.895,34.205-27.2,53.309-.767,2.323-2.065,3.942-3.718,4.529-2.344.833-4.309,0-6.178-1.03-3.898-2.149-5.289-5.529-4.14-9.708l7.493-27.244c1.989-7.233,4.026-13.885,5.877-22.056v-.003ZM1396.132,232.85c.076-4.292-2.242-8.546-4.273-12.189-5.498,3.239-7.842,8.189-10.456,13.267-5.614,10.907-9.928,22.331-11.068,34.699-2.794,30.309,25.35-10.451,25.797-35.777ZM1200.218,249.15c1.614-3.52,3.876-11.544-.109-13.058-3.614-1.374-10.676,8.977-12.648,12.19-7.458,12.154-13.023,25.319-16.061,39.342-.586,2.707-1.178,5.83.494,8.106,10.621-9.66,22.489-33.857,28.324-46.581h0Z" fill="#1d1d1b"/>
  <path d="M299.558,237.208l13.863-12.863c-2.269-4.003-5.672-6.694-8.541-10.029l-4.474-5.2,1.075-.415c-.344.133,45.948-40.173,73.547-53.593,29.216-14.207,66.156-19.629,94.954-1.786,21.664,13.423,32.531,38.269,28.48,63.432-6.757,41.963-38.056,80.893-78.606,94.613-17.725,5.997-32.618,5.569-50.383.569l4.404-18.573c7.432,2.095,14.667,3.508,22.303,2.382,11.471-1.691,21.785-4.945,31.562-11.28,18.858-12.22,33.796-29.367,42.644-50.117,8.81-20.661,10.565-47.036-10.086-61.132-7.897-5.391-17.444-8.408-27.105-9.325-33.308-3.161-64.125,15.439-89.292,35.155l-13.84,10.842-7.93,6.804c-2.888,2.478-5.934,4.452-8.225,7.75l23.273,25.966-12.385,11.767-25.238-24.967h0Z" fill="#1d1d1b"/>
  <path d="M1070.023,295.423c-8.23,9.902-21.066,27.595-34.905,23.447-5.487-1.645-9.292-6.412-11.083-11.905-7.122-21.839,12.8-60.195,29.834-62.374,7.692-.984,14.588,4.388,14.454,12.719-.147,9.118-6.147,17.353-12.376,23.974-4.295,4.566-10.713,8.738-17.582,7.48-1.432,3.518-1.395,14.432,2.236,16.113,8.925,4.131,29.329-23.95,34.526-30.695l6.097-26.906c.828-3.653,3.572-5.927,7.547-4.832,2.687.74,6.697,2.963,6.199,6.103l-2.25,14.188c4.454-6.654,17.006-27.478,26.252-25.626,6.972,1.397,9.921,8.344,8.594,14.935l-6.779,33.677c.15-.745-.668,8.048.259,8.701,2.355,1.657,11.66-9.422,13.476-11.504,1.799-2.063,3.595-5.398,6.423-5.894,2.718-.477,3.84,3.54,2.746,5.78-3.071,6.291-7.555,11.467-11.842,16.969-3.387,4.346-10.588,10.717-16.253,9.172-8.908-2.429-9.933-14.259-8.336-21.729l5.657-26.455c.586-2.741,1.715-5.145.631-8.285-2.408,1.66-4.271,3.692-6.135,6.163-11.766,15.592-20.003,33.427-25.831,52.129-.628,2.017-1.569,3.383-3.025,3.913-3.525,1.283-10.392-2.104-10.32-6.428l1.784-12.83h.002ZM1056.429,255.519c-1.464-.983-3.576,1.39-4.588,2.481-5.477,5.9-8.708,13.18-11.381,21.034,7.048.303,20.856-20.233,15.969-23.514h0Z" fill="#1d1d1b"/>
  <path d="M447.457,126.506c-12.599,7.237-28.333,3.093-34.731-9.416-1.909-3.731-3.227-7.247-3.516-11.353-1.121-15.92,5.368-31.438,18.158-40.777,6.871-5.017,15.126-7.486,23.195-4.671,9.168,3.199,14.582,11.493,16.507,20.794.59,5.512.764,10.983.005,16.401-2.697,11.965-8.679,22.738-19.617,29.021h-.001Z" fill="#1d1d1b"/>
  <path d="M236.685,107.409c-7.012,16.294-23.557,27.652-39.938,20.281-6.289-2.829-11.845-8.939-13.947-16.829-4.997-18.755,6.021-41.009,22.749-49.104,11.672-5.649,24.466-1.351,30.455,10.038,5.826,11.08,5.662,24.043.682,35.614h0Z" fill="#1d1d1b"/>
  <path d="M1522.127,268.327c-1.167,3.175-4.641,3.699-7.392,3.064-2.163-.499-5.5-2.443-5.118-5.576.883-7.247,2.807-13.809,4.759-20.922l22.796-83.041c1.085-3.953,4.466-5.975,8.47-5.335,4.635.741,8.856,2.782,12.926,5.109,2.471,1.413,3.742,4.266,2.566,7.234l-33.938,85.672-5.069,13.794h0Z" fill="#1d1d1b"/>
  <path d="M1516.82,290.529c5.585,7.507,3.314,17.443-3.212,23.192-3.804,3.351-8.503,5.023-13.486,3.353-4.199-1.408-8.107-5.381-8.461-10.527-.461-6.698,2.441-12.242,7.167-16.657,3.496-3.266,8.925-4.856,13.616-3.051,1.17.52,3.374,2.344,4.375,3.69h.001Z" fill="#1d1d1b"/>
  <path d="M1354.125,202.319c-3.472,2.551-7.612-1.049-8.855-4.437-2.07-5.643.514-12.141,5.626-15.16,2.442-1.442,4.913-1.355,7.248-.084,8.265,4.498-.075,16.783-4.019,19.681Z" fill="#1d1d1b"/>
  <path d="M711.237,129.707c0,5.184-4.06,8.208-11.835,8.208h-15.032v-30.237h14.168c7.257,0,11.145,3.067,11.145,7.862,0,3.11-1.555,5.399-3.888,6.652,3.24,1.036,5.443,3.585,5.443,7.516h-.001ZM689.985,112.083v8.337h7.948c3.888,0,6.091-1.382,6.091-4.147,0-2.808-2.203-4.19-6.091-4.19,0,0-7.948,0-7.948,0ZM705.579,129.146c0-3.024-2.289-4.363-6.522-4.363h-9.071v8.726h9.071c4.233,0,6.522-1.339,6.522-4.363Z" fill="#1d1d1b"/>
  <path d="M724.148,107.677h5.616v30.237h-5.616v-30.237Z" fill="#1d1d1b"/>
  <path d="M771.704,107.677v30.237h-4.622l-16.673-20.475v20.475h-5.573v-30.237h4.622l16.674,20.475v-20.475h5.572,0Z" fill="#1d1d1b"/>
  <path d="M786.732,107.677h13.218c9.805,0,16.501,6.047,16.501,15.118s-6.695,15.119-16.501,15.119h-13.218v-30.237ZM799.691,133.163c6.738,0,11.101-4.103,11.101-10.367s-4.363-10.367-11.101-10.367h-7.343v20.734h7.343Z" fill="#1d1d1b"/>
  <path d="M841.068,127.245v10.669h-5.616v-10.583l-11.879-19.654h6.004l8.855,14.73,8.941-14.73h5.529l-11.835,19.568h.001Z" fill="#1d1d1b"/>
</svg>